<svg xmlns="http://www.w3.org/2000/svg" viewBox="0 0 64 64" role="img" aria-label="Rose Attridge">
  <defs>
    <linearGradient id="reveal" x1="13" y1="50" x2="54" y2="10" gradientUnits="userSpaceOnUse">
      <stop offset="0" stop-color="#0b5f84"/>
      <stop offset=".45" stop-color="#7fe4ff"/>
      <stop offset="1" stop-color="#f4f1eb"/>
    </linearGradient>
    <radialGradient id="wash" cx="68%" cy="24%" r="78%">
      <stop offset="0" stop-color="#123f61"/>
      <stop offset=".55" stop-color="#071c2e"/>
      <stop offset="1" stop-color="#040b13"/>
    </radialGradient>
  </defs>
  <rect width="64" height="64" rx="14" fill="url(#wash)"/>
  <path d="M12 46c8-16 20-27 39-33" fill="none" stroke="url(#reveal)" stroke-width="5" stroke-linecap="round"/>
  <path d="M17 49c10-5 21-5 31 0" fill="none" stroke="#7fe4ff" stroke-width="1.6" stroke-linecap="round" opacity=".48"/>
  <path d="M19 44V20h10.5c6.1 0 10 3.2 10 8.2 0 3.2-1.7 5.7-4.8 7l6.3 8.8h-6.8l-5.6-7.8H25V44h-6Zm6-12.8h4.1c2.7 0 4.3-1.1 4.3-3.1s-1.6-3.1-4.3-3.1H25v6.2Z" fill="#f4f1eb"/>
  <path d="M41.5 44 50 20h5.2L46.7 44h-5.2Z" fill="#f4f1eb" opacity=".92"/>
</svg>
